# xmcd
#
# Track frame offsets: 
#        150
#        11922
#        29523
#        46762
#        69530
#        87657
#        102996
#        119211
#        133493
#        150120
#        162232
#        177169
#        191109
#        203675
#        213548
#        226540
#        241290
#        255869
#        269398
#        286092
#
# Disc length: 4055 seconds
#
# Revision: 0
# Processed by: cddbd v1.5.1PL0 Copyright (c) Steve Scherf et al.
# Submitted via: ExactAudioCopy v0.95a3
#
DISCID=1a0fd514
DTITLE=Various Artist - 往日时光 台湾校园民谣精选
DYEAR=2001
DGENRE=
TTITLE0=春天的故事（齐豫）
TTITLE1=兰花草（刘文正）
TTITLE2=忘了我是谁（王海玲）
TTITLE3=流浪者的独白（叶佳修）
TTITLE4=恰似你的温柔（蔡琴）
TTITLE5=雨中即景（刘文正）
TTITLE6=聚散两依依（李碧华）
TTITLE7=回家（潘安邦）
TTITLE8=浪迹天涯（陈淑桦）
TTITLE9=让我们看云去（刘文正）
TTITLE10=俏姑娘（小乌鸦合唱团）
TTITLE11=故乡的风（张明敏）
TTITLE12=花雨伞（银霞）
TTITLE13=寻梦园（刘文正）
TTITLE14=午后的雷雨（李碧华）
TTITLE15=阳光与小雨（潘安邦）
TTITLE16=娃娃的故事（陈淑桦）
TTITLE17=如果（刘文正）
TTITLE18=烟雨蒙蒙（李茂山）
TTITLE19=三月里的小雨（刘文正）
EXTD=
EXTT0=
EXTT1=
EXTT2=
EXTT3=
EXTT4=
EXTT5=
EXTT6=
EXTT7=
EXTT8=
EXTT9=
EXTT10=
EXTT11=
EXTT12=
EXTT13=
EXTT14=
EXTT15=
EXTT16=
EXTT17=
EXTT18=
EXTT19=
PLAYORDER=
